<svg xmlns="http://www.w3.org/2000/svg" xmlns:xlink="http://www.w3.org/1999/xlink" width="300" zoomAndPan="magnify" viewBox="0 0 224.87999 225" height="300" preserveAspectRatio="xMidYMid meet" version="1.0"><defs><clipPath id="f2888dd23a"><path d="M 0 0.0585938 L 224.761719 0.0585938 L 224.761719 224.9375 L 0 224.9375 Z M 0 0.0585938 " clip-rule="nonzero"/></clipPath><clipPath id="5d7778b3ca"><path d="M 159.101562 39.847656 L 185.09375 39.847656 L 185.09375 65.839844 L 159.101562 65.839844 Z M 159.101562 39.847656 " clip-rule="nonzero"/></clipPath><clipPath id="cf77146c0f"><path d="M 172.097656 39.847656 C 164.921875 39.847656 159.101562 45.664062 159.101562 52.84375 C 159.101562 60.019531 164.921875 65.839844 172.097656 65.839844 C 179.273438 65.839844 185.09375 60.019531 185.09375 52.84375 C 185.09375 45.664062 179.273438 39.847656 172.097656 39.847656 Z M 172.097656 39.847656 " clip-rule="nonzero"/></clipPath><clipPath id="e2872d2837"><path d="M 39.785156 159.160156 L 65.777344 159.160156 L 65.777344 185.152344 L 39.785156 185.152344 Z M 39.785156 159.160156 " clip-rule="nonzero"/></clipPath><clipPath id="db6a7b3734"><path d="M 52.78125 159.160156 C 45.605469 159.160156 39.785156 164.980469 39.785156 172.15625 C 39.785156 179.335938 45.605469 185.152344 52.78125 185.152344 C 59.960938 185.152344 65.777344 179.335938 65.777344 172.15625 C 65.777344 164.980469 59.960938 159.160156 52.78125 159.160156 Z M 52.78125 159.160156 " clip-rule="nonzero"/></clipPath><clipPath id="d247174cc9"><path d="M 0 185.902344 L 185.09375 185.902344 L 185.09375 224.9375 L 0 224.9375 Z M 0 185.902344 " clip-rule="nonzero"/></clipPath><clipPath id="f31d851a1b"><path d="M 185.089844 0.0585938 L 224.761719 0.0585938 L 224.761719 224.933594 L 185.089844 224.933594 Z M 185.089844 0.0585938 " clip-rule="nonzero"/></clipPath></defs><g clip-path="url(#f2888dd23a)"><path fill="#ffffff" d="M 0 0.0585938 L 224.878906 0.0585938 L 224.878906 224.941406 L 0 224.941406 Z M 0 0.0585938 " fill-opacity="1" fill-rule="nonzero"/><path fill="#ffffff" d="M 0 0.0585938 L 224.878906 0.0585938 L 224.878906 224.941406 L 0 224.941406 Z M 0 0.0585938 " fill-opacity="1" fill-rule="nonzero"/></g><g clip-path="url(#5d7778b3ca)"><g clip-path="url(#cf77146c0f)"><path fill="#5271ff" d="M 159.101562 39.847656 L 185.09375 39.847656 L 185.09375 65.839844 L 159.101562 65.839844 Z M 159.101562 39.847656 " fill-opacity="1" fill-rule="nonzero"/></g></g><g clip-path="url(#e2872d2837)"><g clip-path="url(#db6a7b3734)"><path fill="#5271ff" d="M 39.785156 159.160156 L 65.777344 159.160156 L 65.777344 185.152344 L 39.785156 185.152344 Z M 39.785156 159.160156 " fill-opacity="1" fill-rule="nonzero"/></g></g><g clip-path="url(#d247174cc9)"><path fill="#ffffff" d="M -39.785156 185.902344 L 185.101562 185.902344 L 185.101562 225.691406 L -39.785156 225.691406 Z M -39.785156 185.902344 " fill-opacity="1" fill-rule="nonzero"/></g><g clip-path="url(#f31d851a1b)"><path fill="#ffffff" d="M 224.875 0.0546875 L 224.875 224.941406 L 185.089844 224.941406 L 185.089844 0.0546875 Z M 224.875 0.0546875 " fill-opacity="1" fill-rule="nonzero"/></g></svg>