<svg xmlns="http://www.w3.org/2000/svg" xmlns:xlink="http://www.w3.org/1999/xlink" width="300" zoomAndPan="magnify" viewBox="0 0 224.87999 225" height="300" preserveAspectRatio="xMidYMid meet" version="1.0"><defs><clipPath id="8cc9cb7ca2"><path d="M 0 0.0585938 L 224.761719 0.0585938 L 224.761719 224.9375 L 0 224.9375 Z M 0 0.0585938 " clip-rule="nonzero"/></clipPath><clipPath id="bf1140caf9"><path d="M 0 185.902344 L 185.09375 185.902344 L 185.09375 224.9375 L 0 224.9375 Z M 0 185.902344 " clip-rule="nonzero"/></clipPath><clipPath id="48f1c9ee29"><path d="M 185.089844 0.0585938 L 224.761719 0.0585938 L 224.761719 224.933594 L 185.089844 224.933594 Z M 185.089844 0.0585938 " clip-rule="nonzero"/></clipPath><clipPath id="7b2085b679"><path d="M 99.445312 99.503906 L 125.4375 99.503906 L 125.4375 125.496094 L 99.445312 125.496094 Z M 99.445312 99.503906 " clip-rule="nonzero"/></clipPath><clipPath id="3944888afc"><path d="M 112.441406 99.503906 C 105.261719 99.503906 99.445312 105.324219 99.445312 112.5 C 99.445312 119.675781 105.261719 125.496094 112.441406 125.496094 C 119.617188 125.496094 125.4375 119.675781 125.4375 112.5 C 125.4375 105.324219 119.617188 99.503906 112.441406 99.503906 Z M 112.441406 99.503906 " clip-rule="nonzero"/></clipPath></defs><g clip-path="url(#8cc9cb7ca2)"><path fill="#ffffff" d="M 0 0.0585938 L 224.878906 0.0585938 L 224.878906 224.941406 L 0 224.941406 Z M 0 0.0585938 " fill-opacity="1" fill-rule="nonzero"/><path fill="#ffffff" d="M 0 0.0585938 L 224.878906 0.0585938 L 224.878906 224.941406 L 0 224.941406 Z M 0 0.0585938 " fill-opacity="1" fill-rule="nonzero"/></g><g clip-path="url(#bf1140caf9)"><path fill="#ffffff" d="M -39.785156 185.902344 L 185.101562 185.902344 L 185.101562 225.691406 L -39.785156 225.691406 Z M -39.785156 185.902344 " fill-opacity="1" fill-rule="nonzero"/></g><g clip-path="url(#48f1c9ee29)"><path fill="#ffffff" d="M 224.875 0.0546875 L 224.875 224.941406 L 185.089844 224.941406 L 185.089844 0.0546875 Z M 224.875 0.0546875 " fill-opacity="1" fill-rule="nonzero"/></g><g clip-path="url(#7b2085b679)"><g clip-path="url(#3944888afc)"><path fill="#5271ff" d="M 99.445312 99.503906 L 125.4375 99.503906 L 125.4375 125.496094 L 99.445312 125.496094 Z M 99.445312 99.503906 " fill-opacity="1" fill-rule="nonzero"/></g></g></svg>