<svg xmlns="http://www.w3.org/2000/svg" xmlns:xlink="http://www.w3.org/1999/xlink" width="300" zoomAndPan="magnify" viewBox="0 0 224.87999 225" height="300" preserveAspectRatio="xMidYMid meet" version="1.0"><defs><clipPath id="bba2752595"><path d="M 0 0.0585938 L 224.761719 0.0585938 L 224.761719 224.9375 L 0 224.9375 Z M 0 0.0585938 " clip-rule="nonzero"/></clipPath><clipPath id="2961cb2eb4"><path d="M 39.785156 39.847656 L 65.777344 39.847656 L 65.777344 65.839844 L 39.785156 65.839844 Z M 39.785156 39.847656 " clip-rule="nonzero"/></clipPath><clipPath id="ed0578fc08"><path d="M 52.78125 39.847656 C 45.605469 39.847656 39.785156 45.664062 39.785156 52.84375 C 39.785156 60.019531 45.605469 65.839844 52.78125 65.839844 C 59.960938 65.839844 65.777344 60.019531 65.777344 52.84375 C 65.777344 45.664062 59.960938 39.847656 52.78125 39.847656 Z M 52.78125 39.847656 " clip-rule="nonzero"/></clipPath><clipPath id="98b0caaa89"><path d="M 159.101562 39.847656 L 185.09375 39.847656 L 185.09375 65.839844 L 159.101562 65.839844 Z M 159.101562 39.847656 " clip-rule="nonzero"/></clipPath><clipPath id="b14b1ca6e3"><path d="M 172.097656 39.847656 C 164.921875 39.847656 159.101562 45.664062 159.101562 52.84375 C 159.101562 60.019531 164.921875 65.839844 172.097656 65.839844 C 179.273438 65.839844 185.09375 60.019531 185.09375 52.84375 C 185.09375 45.664062 179.273438 39.847656 172.097656 39.847656 Z M 172.097656 39.847656 " clip-rule="nonzero"/></clipPath><clipPath id="c361913237"><path d="M 39.785156 159.160156 L 65.777344 159.160156 L 65.777344 185.152344 L 39.785156 185.152344 Z M 39.785156 159.160156 " clip-rule="nonzero"/></clipPath><clipPath id="5e7407bd8d"><path d="M 52.78125 159.160156 C 45.605469 159.160156 39.785156 164.980469 39.785156 172.15625 C 39.785156 179.335938 45.605469 185.152344 52.78125 185.152344 C 59.960938 185.152344 65.777344 179.335938 65.777344 172.15625 C 65.777344 164.980469 59.960938 159.160156 52.78125 159.160156 Z M 52.78125 159.160156 " clip-rule="nonzero"/></clipPath><clipPath id="727f846af1"><path d="M 159.101562 159.160156 L 185.09375 159.160156 L 185.09375 185.152344 L 159.101562 185.152344 Z M 159.101562 159.160156 " clip-rule="nonzero"/></clipPath><clipPath id="285ca029d5"><path d="M 172.097656 159.160156 C 164.921875 159.160156 159.101562 164.980469 159.101562 172.15625 C 159.101562 179.335938 164.921875 185.152344 172.097656 185.152344 C 179.273438 185.152344 185.09375 179.335938 185.09375 172.15625 C 185.09375 164.980469 179.273438 159.160156 172.097656 159.160156 Z M 172.097656 159.160156 " clip-rule="nonzero"/></clipPath><clipPath id="1547394779"><path d="M 0 185.902344 L 185.09375 185.902344 L 185.09375 224.9375 L 0 224.9375 Z M 0 185.902344 " clip-rule="nonzero"/></clipPath><clipPath id="8c987a4a95"><path d="M 185.089844 0.0585938 L 224.761719 0.0585938 L 224.761719 224.933594 L 185.089844 224.933594 Z M 185.089844 0.0585938 " clip-rule="nonzero"/></clipPath><clipPath id="e072f72daf"><path d="M 99.445312 99.503906 L 125.4375 99.503906 L 125.4375 125.496094 L 99.445312 125.496094 Z M 99.445312 99.503906 " clip-rule="nonzero"/></clipPath><clipPath id="323dedd51e"><path d="M 112.441406 99.503906 C 105.261719 99.503906 99.445312 105.324219 99.445312 112.5 C 99.445312 119.675781 105.261719 125.496094 112.441406 125.496094 C 119.617188 125.496094 125.4375 119.675781 125.4375 112.5 C 125.4375 105.324219 119.617188 99.503906 112.441406 99.503906 Z M 112.441406 99.503906 " clip-rule="nonzero"/></clipPath></defs><g clip-path="url(#bba2752595)"><path fill="#ffffff" d="M 0 0.0585938 L 224.878906 0.0585938 L 224.878906 224.941406 L 0 224.941406 Z M 0 0.0585938 " fill-opacity="1" fill-rule="nonzero"/><path fill="#ffffff" d="M 0 0.0585938 L 224.878906 0.0585938 L 224.878906 224.941406 L 0 224.941406 Z M 0 0.0585938 " fill-opacity="1" fill-rule="nonzero"/></g><g clip-path="url(#2961cb2eb4)"><g clip-path="url(#ed0578fc08)"><path fill="#5271ff" d="M 39.785156 39.847656 L 65.777344 39.847656 L 65.777344 65.839844 L 39.785156 65.839844 Z M 39.785156 39.847656 " fill-opacity="1" fill-rule="nonzero"/></g></g><g clip-path="url(#98b0caaa89)"><g clip-path="url(#b14b1ca6e3)"><path fill="#5271ff" d="M 159.101562 39.847656 L 185.09375 39.847656 L 185.09375 65.839844 L 159.101562 65.839844 Z M 159.101562 39.847656 " fill-opacity="1" fill-rule="nonzero"/></g></g><g clip-path="url(#c361913237)"><g clip-path="url(#5e7407bd8d)"><path fill="#5271ff" d="M 39.785156 159.160156 L 65.777344 159.160156 L 65.777344 185.152344 L 39.785156 185.152344 Z M 39.785156 159.160156 " fill-opacity="1" fill-rule="nonzero"/></g></g><g clip-path="url(#727f846af1)"><g clip-path="url(#285ca029d5)"><path fill="#5271ff" d="M 159.101562 159.160156 L 185.09375 159.160156 L 185.09375 185.152344 L 159.101562 185.152344 Z M 159.101562 159.160156 " fill-opacity="1" fill-rule="nonzero"/></g></g><g clip-path="url(#1547394779)"><path fill="#ffffff" d="M -39.785156 185.902344 L 185.101562 185.902344 L 185.101562 225.691406 L -39.785156 225.691406 Z M -39.785156 185.902344 " fill-opacity="1" fill-rule="nonzero"/></g><g clip-path="url(#8c987a4a95)"><path fill="#ffffff" d="M 224.875 0.0546875 L 224.875 224.941406 L 185.089844 224.941406 L 185.089844 0.0546875 Z M 224.875 0.0546875 " fill-opacity="1" fill-rule="nonzero"/></g><g clip-path="url(#e072f72daf)"><g clip-path="url(#323dedd51e)"><path fill="#5271ff" d="M 99.445312 99.503906 L 125.4375 99.503906 L 125.4375 125.496094 L 99.445312 125.496094 Z M 99.445312 99.503906 " fill-opacity="1" fill-rule="nonzero"/></g></g></svg>